<svg xmlns="http://www.w3.org/2000/svg" width="500" height="500" fill="none"><g fill="#e55c47" fill-rule="evenodd" clip-rule="evenodd"><path d="M126.72 352.65c2.922 21.999 5.345 34.192 14.69 51.745 15.126 28.416 44.082 50.296 76.292 57.146 15.059 3.204 47.382 3.69 62.696 1.6 52.13-7.128 92.837-48.806 98.707-101.082 1.177-10.48.704-21.894.704-32.524 0-6.01.387-62.124-.211-66.505-1.347-9.844-7.221-16.134-13.517-19.702-3.23-1.834-100.769-38.722-108.25-41.582-4.129-1.575-8.27-3.599-13.466-2.958-9.28 1.144-14.133 8.224-15.727 17.44-1.116 6.468-.2 9.275 1.29 14.954 3.715 14.148 10.847 18.898 25.04 24.927l58.302 24.813c5.47 2.334 6.481 3.38 6.459 10.371-.033 11.054 0 22.112 0 33.168 0 5.8.739 10.763-3.738 13.093-4.75 2.475-9.477-1.118-9.972-5.298-.428-3.642.004-26.823-.086-33.119-3.167 1.086-9.123 5.29-11.801 7.192-7.856 5.577-13.668 10.92-19.679 18.562-21.327 27.116-17.4 52.404-18.877 57.207-1.477 4.813-7.998 6.57-11.648 2.497-4.27-4.766-.006-26.235 1.768-32.645 2.773-9.996 6.678-18.602 11.45-26.417 2.564-4.2 5.143-7.553 8.025-11.089 6.064-7.443 11.767-12.588 19.537-18.32l11.167-7.621c-9.447-3.98-19.059-8.103-28.686-12.221-4.84-2.074-9.63-4.04-14.51-6.176a465 465 0 0 0-7.108-3.035c-2.154-.904-5.054-2.526-6.985-3.161.875 5.182 6.396 24.336 8.126 31.286 5.532 22.226-6.306 42.824-27.682 47.59-12.952 2.889-21.124-.696-30.784-6.472-1.442 2.973-2.202 5.621-4.017 8.385-4.853 7.398-10.993 12.873-20.37 15.934-21.344 6.969-34.904-7.053-37.14-7.984M288.563 198.43c.766.711 44.297 17.492 48.281 18.632 1.116-1.425 36.576-125.93 40.619-139.55 2.518-8.476 5.263-15.594 1.676-24.782-6.344-16.248-25.43-21.65-38.905-12.843-6.164 4.028-9.409 8.854-12.002 18.057l-33.106 117.11c-2.123 7.325-4.989 16.105-6.563 23.376m-91.838-10.853c10.19 1.722 16.077 7.072 22.28 13.525 1.122-1.062 4.324-7.764 11.54-11.816 5.955-3.349 11.276-4.745 19.448-4.27-.71-4.415-21.444-76.313-23.291-82.85-3.924-13.908-7.794-27.498-11.697-41.367-2.303-8.188-3.943-13.234-8.813-17.737-18.274-16.898-45.799-2.637-44.582 20.374.307 5.877 9.141 33.985 11.37 41.72 3.963 13.73 7.901 27.389 11.877 41.177l8.921 30.867c.924 3.208 2.39 7.284 2.947 10.377"/><path d="M126.584 219.76c-12.365 2.484-22.326 14.023-18.72 29.318 3.099 13.141 7.001 26.265 10.31 39.237 3.337 13.1 6.756 26.25 10.33 39.238 2.029 7.378 3.992 12.024 8.843 15.747 18.853 14.472 43.444-2.666 38.002-24.359-3.289-13.109-6.996-26.049-10.347-39.215-3.322-13.034-6.926-26.171-10.285-39.23-1.953-7.591-4.112-12.49-8.767-15.838-5.09-3.66-11.026-6.575-19.366-4.899m58.776-18.809c-12.121 2.224-22.947 14.02-19.112 29.175 3.275 12.95 6.825 26.206 10.372 39.185 3.538 12.95 6.724 26.279 10.268 39.266 2.162 7.92 3.72 11.606 8.69 15.891 4.216 3.638 11.706 6.463 19.171 5.13 12.243-2.186 22.713-13.992 19.136-28.96-3.123-13.083-6.868-26.217-10.277-39.292-1.721-6.603-3.35-12.938-5.11-19.488-.886-3.294-2.16-5.86-2.99-9.502-.807-3.522-1.315-6.854-2.184-10.276-1.97-7.756-4.131-12.214-8.729-15.885-4.733-3.78-11.2-6.72-19.236-5.245"/><path d="M94.872 253.882c-8.905-32.501 23.665-59.353 53.96-43.814 1.743.897 3.063 2.064 4.723 2.803 3.902-12.357 14.527-22.755 28.776-25.376-1.274-6.608-11.18-38.85-13.864-48.184-4.65-16.183-9.318-32.244-14.005-48.43-5.215-18.006-11.591-32.797-.59-50.06 4.194-6.576 8.827-10.888 16.426-14.802 15.439-7.954 34.984-3.962 46.437 8.069 5.619 5.904 8.047 10.515 10.79 20.409 4.51 16.273 9.187 32.424 13.79 48.664l24.043 85.192c.76 2.604 2.143 2.32 4.571 3.243 1.787.678 3.835 1.632 5.578 2.05 12.51-42.92 24.815-86.954 36.834-130.14 2.7-9.702 4.22-16.928 9.174-24.383 7.87-11.852 26.86-22.386 47.489-14.497 14.168 5.418 27.353 20.57 25.469 41.125-.736 8.03-4.79 18.728-6.932 26.525-6.886 25.135-15.172 52.584-22.505 77.78-1.59 5.47-14.093 47.758-14.983 52.2l21.137 8.156c13.695 6.705 22.348 20.568 22.405 36.3.036 9.753-.004 19.514-.004 29.262 0 19.15.672 39.535-.096 58.53-1.247 30.828-12.43 56.478-31.235 78.871-5.459 6.502-11.724 12.242-18.83 17.851-5.402 4.257-11.27 7.913-18.004 11.645-12.12 6.715-28.585 12.164-44.438 14.095-12.514 1.521-44.553 1.48-56.94-.283-23.94-3.408-43.588-12.576-61.455-26.353-2.757-2.126-5.35-4.233-7.756-6.679-8.81-8.952-12.849-12.406-20.26-23.839-14.5-22.365-18.05-39.13-21.694-66.497a12935 12935 0 0 0-6.99-51.526c-.544-3.953-.913-8.927-1.76-12.687-.842-3.746-2.043-7.912-3.075-11.737-2.14-7.923-4.04-15.647-6.186-23.483m53.319-57.113c-37.562-13.875-75.91 19.837-64.831 60.267 2.134 7.795 4.068 15.64 6.173 23.44 1.01 3.733 2.104 7.473 2.954 11.245.834 3.715 1.057 7.89 1.581 11.691 2.355 17.157 4.698 34.313 6.982 51.476 3.745 28.13 7.83 47.23 23.51 71.42 3.445 5.312 7.054 10.261 11.307 14.958 3.351 3.703 6.958 7.2 10.461 10.759 2.792 2.837 5.828 5.33 8.976 7.758 20.083 15.486 41.82 25.124 67.06 28.72 9.574 1.36 20.48 1.458 30.162 1.49 9.669.033 20.312-.014 29.904-1.179 16.458-2.004 34.309-7.483 48.78-15.5 6.836-3.789 13.466-7.87 19.611-12.718 7.461-5.887 14.462-12.258 20.584-19.546 20.972-24.976 32.692-53.282 34.018-86.06.796-19.658.106-39.35.106-59.016 0-9.769.038-19.538.002-29.306-.074-20.006-11.083-38.159-29.09-46.978l-.469-.228-11.586-4.469a2475 2475 0 0 1 4.514-15.655c2.518-8.652 5.08-17.294 7.6-25.946 7.558-25.972 15.404-51.872 22.558-77.96 2.576-9.407 6.406-18.807 7.302-28.592 2.126-23.2-11.309-45.033-33.093-53.362-22.128-8.465-48.46-.888-61.694 19.04-5.937 8.938-7.909 17.645-10.73 27.785-9.754 35.042-19.535 70.079-29.575 105.04l-18.465-65.427c-4.573-16.205-9.274-32.378-13.774-48.607-2.936-10.59-6.065-17.482-13.65-25.45-15.27-16.045-40.786-20.632-60.548-10.45-9.128 4.7-15.518 10.358-21.023 18.997-13.446 21.093-7.108 38.061-.812 59.793 4.67 16.137 9.358 32.266 14 48.41 2.248 7.823 4.646 15.62 6.96 23.423 1.347 4.554 2.692 9.114 3.99 13.682a49.37 49.37 0 0 0-19.755 17.055"/></g></svg>